<mxfile host="app.diagrams.net" modified="2023-12-12T16:17:57.163Z" agent="Mozilla/5.0 (Windows NT 10.0; Win64; x64) AppleWebKit/537.36 (KHTML, like Gecko) Chrome/119.0.0.0 Safari/537.36 Edg/119.0.0.0" etag="6Ms2yY5leIKo_tOu_0M7" version="22.1.7" type="device">
  <diagram name="Page-1" id="-vIt9_laSdh2-__3np2O">
    <mxGraphModel dx="1914" dy="964" grid="1" gridSize="10" guides="1" tooltips="1" connect="1" arrows="1" fold="1" page="1" pageScale="1" pageWidth="850" pageHeight="1100" math="0" shadow="0">
      <root>
        <mxCell id="0" />
        <mxCell id="1" parent="0" />
        <mxCell id="dV_gZ1XD_IvCjIzvJvZ3-2" value="Product" style="swimlane;fontStyle=0;childLayout=stackLayout;horizontal=1;startSize=26;fillColor=none;horizontalStack=0;resizeParent=1;resizeParentMax=0;resizeLast=0;collapsible=1;marginBottom=0;whiteSpace=wrap;html=1;" vertex="1" parent="1">
          <mxGeometry x="510" y="20" width="170" height="104" as="geometry" />
        </mxCell>
        <mxCell id="dV_gZ1XD_IvCjIzvJvZ3-3" value="+ id: String" style="text;strokeColor=none;fillColor=none;align=left;verticalAlign=top;spacingLeft=4;spacingRight=4;overflow=hidden;rotatable=0;points=[[0,0.5],[1,0.5]];portConstraint=eastwest;whiteSpace=wrap;html=1;" vertex="1" parent="dV_gZ1XD_IvCjIzvJvZ3-2">
          <mxGeometry y="26" width="170" height="26" as="geometry" />
        </mxCell>
        <mxCell id="dV_gZ1XD_IvCjIzvJvZ3-160" value="+ idClient: String" style="text;strokeColor=none;fillColor=none;align=left;verticalAlign=top;spacingLeft=4;spacingRight=4;overflow=hidden;rotatable=0;points=[[0,0.5],[1,0.5]];portConstraint=eastwest;whiteSpace=wrap;html=1;" vertex="1" parent="dV_gZ1XD_IvCjIzvJvZ3-2">
          <mxGeometry y="52" width="170" height="26" as="geometry" />
        </mxCell>
        <mxCell id="dV_gZ1XD_IvCjIzvJvZ3-4" value="+ productType: String&amp;nbsp;" style="text;strokeColor=none;fillColor=none;align=left;verticalAlign=top;spacingLeft=4;spacingRight=4;overflow=hidden;rotatable=0;points=[[0,0.5],[1,0.5]];portConstraint=eastwest;whiteSpace=wrap;html=1;" vertex="1" parent="dV_gZ1XD_IvCjIzvJvZ3-2">
          <mxGeometry y="78" width="170" height="26" as="geometry" />
        </mxCell>
        <mxCell id="dV_gZ1XD_IvCjIzvJvZ3-6" value="Client" style="swimlane;fontStyle=0;childLayout=stackLayout;horizontal=1;startSize=26;fillColor=none;horizontalStack=0;resizeParent=1;resizeParentMax=0;resizeLast=0;collapsible=1;marginBottom=0;whiteSpace=wrap;html=1;" vertex="1" parent="1">
          <mxGeometry x="-410" y="50" width="180" height="156" as="geometry" />
        </mxCell>
        <mxCell id="dV_gZ1XD_IvCjIzvJvZ3-7" value="+ id: String" style="text;strokeColor=none;fillColor=none;align=left;verticalAlign=top;spacingLeft=4;spacingRight=4;overflow=hidden;rotatable=0;points=[[0,0.5],[1,0.5]];portConstraint=eastwest;whiteSpace=wrap;html=1;" vertex="1" parent="dV_gZ1XD_IvCjIzvJvZ3-6">
          <mxGeometry y="26" width="180" height="26" as="geometry" />
        </mxCell>
        <mxCell id="dV_gZ1XD_IvCjIzvJvZ3-8" value="+ documentNumber: String" style="text;strokeColor=none;fillColor=none;align=left;verticalAlign=top;spacingLeft=4;spacingRight=4;overflow=hidden;rotatable=0;points=[[0,0.5],[1,0.5]];portConstraint=eastwest;whiteSpace=wrap;html=1;" vertex="1" parent="dV_gZ1XD_IvCjIzvJvZ3-6">
          <mxGeometry y="52" width="180" height="26" as="geometry" />
        </mxCell>
        <mxCell id="dV_gZ1XD_IvCjIzvJvZ3-11" value="+ documentType: String" style="text;strokeColor=none;fillColor=none;align=left;verticalAlign=top;spacingLeft=4;spacingRight=4;overflow=hidden;rotatable=0;points=[[0,0.5],[1,0.5]];portConstraint=eastwest;whiteSpace=wrap;html=1;" vertex="1" parent="dV_gZ1XD_IvCjIzvJvZ3-6">
          <mxGeometry y="78" width="180" height="26" as="geometry" />
        </mxCell>
        <mxCell id="dV_gZ1XD_IvCjIzvJvZ3-12" value="+ phone: String" style="text;strokeColor=none;fillColor=none;align=left;verticalAlign=top;spacingLeft=4;spacingRight=4;overflow=hidden;rotatable=0;points=[[0,0.5],[1,0.5]];portConstraint=eastwest;whiteSpace=wrap;html=1;" vertex="1" parent="dV_gZ1XD_IvCjIzvJvZ3-6">
          <mxGeometry y="104" width="180" height="26" as="geometry" />
        </mxCell>
        <mxCell id="dV_gZ1XD_IvCjIzvJvZ3-13" value="+ email: String" style="text;strokeColor=none;fillColor=none;align=left;verticalAlign=top;spacingLeft=4;spacingRight=4;overflow=hidden;rotatable=0;points=[[0,0.5],[1,0.5]];portConstraint=eastwest;whiteSpace=wrap;html=1;" vertex="1" parent="dV_gZ1XD_IvCjIzvJvZ3-6">
          <mxGeometry y="130" width="180" height="26" as="geometry" />
        </mxCell>
        <mxCell id="dV_gZ1XD_IvCjIzvJvZ3-21" value="Personal" style="swimlane;fontStyle=0;childLayout=stackLayout;horizontal=1;startSize=26;fillColor=none;horizontalStack=0;resizeParent=1;resizeParentMax=0;resizeLast=0;collapsible=1;marginBottom=0;whiteSpace=wrap;html=1;" vertex="1" parent="1">
          <mxGeometry x="-500" y="360" width="140" height="104" as="geometry" />
        </mxCell>
        <mxCell id="dV_gZ1XD_IvCjIzvJvZ3-22" value="+ id: String" style="text;strokeColor=none;fillColor=none;align=left;verticalAlign=top;spacingLeft=4;spacingRight=4;overflow=hidden;rotatable=0;points=[[0,0.5],[1,0.5]];portConstraint=eastwest;whiteSpace=wrap;html=1;" vertex="1" parent="dV_gZ1XD_IvCjIzvJvZ3-21">
          <mxGeometry y="26" width="140" height="26" as="geometry" />
        </mxCell>
        <mxCell id="dV_gZ1XD_IvCjIzvJvZ3-23" value="+ names: String" style="text;strokeColor=none;fillColor=none;align=left;verticalAlign=top;spacingLeft=4;spacingRight=4;overflow=hidden;rotatable=0;points=[[0,0.5],[1,0.5]];portConstraint=eastwest;whiteSpace=wrap;html=1;" vertex="1" parent="dV_gZ1XD_IvCjIzvJvZ3-21">
          <mxGeometry y="52" width="140" height="26" as="geometry" />
        </mxCell>
        <mxCell id="dV_gZ1XD_IvCjIzvJvZ3-24" value="+ surnames: String" style="text;strokeColor=none;fillColor=none;align=left;verticalAlign=top;spacingLeft=4;spacingRight=4;overflow=hidden;rotatable=0;points=[[0,0.5],[1,0.5]];portConstraint=eastwest;whiteSpace=wrap;html=1;" vertex="1" parent="dV_gZ1XD_IvCjIzvJvZ3-21">
          <mxGeometry y="78" width="140" height="26" as="geometry" />
        </mxCell>
        <mxCell id="dV_gZ1XD_IvCjIzvJvZ3-25" value="Enterprise" style="swimlane;fontStyle=0;childLayout=stackLayout;horizontal=1;startSize=26;fillColor=none;horizontalStack=0;resizeParent=1;resizeParentMax=0;resizeLast=0;collapsible=1;marginBottom=0;whiteSpace=wrap;html=1;" vertex="1" parent="1">
          <mxGeometry x="-270" y="360" width="140" height="52" as="geometry" />
        </mxCell>
        <mxCell id="dV_gZ1XD_IvCjIzvJvZ3-26" value="+ businessName: String" style="text;strokeColor=none;fillColor=none;align=left;verticalAlign=top;spacingLeft=4;spacingRight=4;overflow=hidden;rotatable=0;points=[[0,0.5],[1,0.5]];portConstraint=eastwest;whiteSpace=wrap;html=1;" vertex="1" parent="dV_gZ1XD_IvCjIzvJvZ3-25">
          <mxGeometry y="26" width="140" height="26" as="geometry" />
        </mxCell>
        <mxCell id="dV_gZ1XD_IvCjIzvJvZ3-33" value="Bank account" style="swimlane;fontStyle=0;childLayout=stackLayout;horizontal=1;startSize=26;fillColor=none;horizontalStack=0;resizeParent=1;resizeParentMax=0;resizeLast=0;collapsible=1;marginBottom=0;whiteSpace=wrap;html=1;" vertex="1" parent="1">
          <mxGeometry x="340" y="200" width="160" height="130" as="geometry" />
        </mxCell>
        <mxCell id="dV_gZ1XD_IvCjIzvJvZ3-34" value="+ id: String" style="text;strokeColor=none;fillColor=none;align=left;verticalAlign=top;spacingLeft=4;spacingRight=4;overflow=hidden;rotatable=0;points=[[0,0.5],[1,0.5]];portConstraint=eastwest;whiteSpace=wrap;html=1;" vertex="1" parent="dV_gZ1XD_IvCjIzvJvZ3-33">
          <mxGeometry y="26" width="160" height="26" as="geometry" />
        </mxCell>
        <mxCell id="dV_gZ1XD_IvCjIzvJvZ3-35" value="+ accountBankType: String" style="text;strokeColor=none;fillColor=none;align=left;verticalAlign=top;spacingLeft=4;spacingRight=4;overflow=hidden;rotatable=0;points=[[0,0.5],[1,0.5]];portConstraint=eastwest;whiteSpace=wrap;html=1;" vertex="1" parent="dV_gZ1XD_IvCjIzvJvZ3-33">
          <mxGeometry y="52" width="160" height="26" as="geometry" />
        </mxCell>
        <mxCell id="dV_gZ1XD_IvCjIzvJvZ3-36" value="+ balance: String" style="text;strokeColor=none;fillColor=none;align=left;verticalAlign=top;spacingLeft=4;spacingRight=4;overflow=hidden;rotatable=0;points=[[0,0.5],[1,0.5]];portConstraint=eastwest;whiteSpace=wrap;html=1;" vertex="1" parent="dV_gZ1XD_IvCjIzvJvZ3-33">
          <mxGeometry y="78" width="160" height="26" as="geometry" />
        </mxCell>
        <mxCell id="dV_gZ1XD_IvCjIzvJvZ3-153" value="+ accountType: String" style="text;strokeColor=none;fillColor=none;align=left;verticalAlign=top;spacingLeft=4;spacingRight=4;overflow=hidden;rotatable=0;points=[[0,0.5],[1,0.5]];portConstraint=eastwest;whiteSpace=wrap;html=1;" vertex="1" parent="dV_gZ1XD_IvCjIzvJvZ3-33">
          <mxGeometry y="104" width="160" height="26" as="geometry" />
        </mxCell>
        <mxCell id="dV_gZ1XD_IvCjIzvJvZ3-37" value="Bank credit" style="swimlane;fontStyle=0;childLayout=stackLayout;horizontal=1;startSize=26;fillColor=none;horizontalStack=0;resizeParent=1;resizeParentMax=0;resizeLast=0;collapsible=1;marginBottom=0;whiteSpace=wrap;html=1;" vertex="1" parent="1">
          <mxGeometry x="760" y="210" width="140" height="104" as="geometry" />
        </mxCell>
        <mxCell id="dV_gZ1XD_IvCjIzvJvZ3-38" value="+ id: String" style="text;strokeColor=none;fillColor=none;align=left;verticalAlign=top;spacingLeft=4;spacingRight=4;overflow=hidden;rotatable=0;points=[[0,0.5],[1,0.5]];portConstraint=eastwest;whiteSpace=wrap;html=1;" vertex="1" parent="dV_gZ1XD_IvCjIzvJvZ3-37">
          <mxGeometry y="26" width="140" height="26" as="geometry" />
        </mxCell>
        <mxCell id="dV_gZ1XD_IvCjIzvJvZ3-39" value="+ numCredits: Integer" style="text;strokeColor=none;fillColor=none;align=left;verticalAlign=top;spacingLeft=4;spacingRight=4;overflow=hidden;rotatable=0;points=[[0,0.5],[1,0.5]];portConstraint=eastwest;whiteSpace=wrap;html=1;" vertex="1" parent="dV_gZ1XD_IvCjIzvJvZ3-37">
          <mxGeometry y="52" width="140" height="26" as="geometry" />
        </mxCell>
        <mxCell id="dV_gZ1XD_IvCjIzvJvZ3-157" value="+ creditType: Integer" style="text;strokeColor=none;fillColor=none;align=left;verticalAlign=top;spacingLeft=4;spacingRight=4;overflow=hidden;rotatable=0;points=[[0,0.5],[1,0.5]];portConstraint=eastwest;whiteSpace=wrap;html=1;" vertex="1" parent="dV_gZ1XD_IvCjIzvJvZ3-37">
          <mxGeometry y="78" width="140" height="26" as="geometry" />
        </mxCell>
        <mxCell id="dV_gZ1XD_IvCjIzvJvZ3-41" style="edgeStyle=orthogonalEdgeStyle;rounded=0;orthogonalLoop=1;jettySize=auto;html=1;entryX=0.306;entryY=1.154;entryDx=0;entryDy=0;entryPerimeter=0;" edge="1" parent="1" source="dV_gZ1XD_IvCjIzvJvZ3-33" target="dV_gZ1XD_IvCjIzvJvZ3-4">
          <mxGeometry relative="1" as="geometry">
            <Array as="points">
              <mxPoint x="410" y="160" />
              <mxPoint x="562" y="160" />
            </Array>
          </mxGeometry>
        </mxCell>
        <mxCell id="dV_gZ1XD_IvCjIzvJvZ3-42" style="edgeStyle=orthogonalEdgeStyle;rounded=0;orthogonalLoop=1;jettySize=auto;html=1;entryX=0.612;entryY=1.038;entryDx=0;entryDy=0;entryPerimeter=0;" edge="1" parent="1" source="dV_gZ1XD_IvCjIzvJvZ3-37" target="dV_gZ1XD_IvCjIzvJvZ3-4">
          <mxGeometry relative="1" as="geometry">
            <Array as="points">
              <mxPoint x="820" y="160" />
              <mxPoint x="614" y="160" />
            </Array>
          </mxGeometry>
        </mxCell>
        <mxCell id="dV_gZ1XD_IvCjIzvJvZ3-43" value="Bank fixed term" style="swimlane;fontStyle=0;childLayout=stackLayout;horizontal=1;startSize=26;fillColor=none;horizontalStack=0;resizeParent=1;resizeParentMax=0;resizeLast=0;collapsible=1;marginBottom=0;whiteSpace=wrap;html=1;" vertex="1" parent="1">
          <mxGeometry x="450" y="412" width="140" height="52" as="geometry" />
        </mxCell>
        <mxCell id="dV_gZ1XD_IvCjIzvJvZ3-150" value="+ specificDay: Integer" style="text;strokeColor=none;fillColor=none;align=left;verticalAlign=top;spacingLeft=4;spacingRight=4;overflow=hidden;rotatable=0;points=[[0,0.5],[1,0.5]];portConstraint=eastwest;whiteSpace=wrap;html=1;" vertex="1" parent="dV_gZ1XD_IvCjIzvJvZ3-43">
          <mxGeometry y="26" width="140" height="26" as="geometry" />
        </mxCell>
        <mxCell id="dV_gZ1XD_IvCjIzvJvZ3-108" style="edgeStyle=orthogonalEdgeStyle;rounded=0;orthogonalLoop=1;jettySize=auto;html=1;entryX=0;entryY=0.5;entryDx=0;entryDy=0;" edge="1" parent="1" source="dV_gZ1XD_IvCjIzvJvZ3-47" target="dV_gZ1XD_IvCjIzvJvZ3-101">
          <mxGeometry relative="1" as="geometry" />
        </mxCell>
        <mxCell id="dV_gZ1XD_IvCjIzvJvZ3-47" value="Checking account" style="swimlane;fontStyle=0;childLayout=stackLayout;horizontal=1;startSize=26;fillColor=none;horizontalStack=0;resizeParent=1;resizeParentMax=0;resizeLast=0;collapsible=1;marginBottom=0;whiteSpace=wrap;html=1;" vertex="1" parent="1">
          <mxGeometry x="270" y="412" width="155" height="52" as="geometry" />
        </mxCell>
        <mxCell id="dV_gZ1XD_IvCjIzvJvZ3-48" value="+ maintanceFee: Double" style="text;strokeColor=none;fillColor=none;align=left;verticalAlign=top;spacingLeft=4;spacingRight=4;overflow=hidden;rotatable=0;points=[[0,0.5],[1,0.5]];portConstraint=eastwest;whiteSpace=wrap;html=1;" vertex="1" parent="dV_gZ1XD_IvCjIzvJvZ3-47">
          <mxGeometry y="26" width="155" height="26" as="geometry" />
        </mxCell>
        <mxCell id="dV_gZ1XD_IvCjIzvJvZ3-107" style="edgeStyle=orthogonalEdgeStyle;rounded=0;orthogonalLoop=1;jettySize=auto;html=1;entryX=0;entryY=0.5;entryDx=0;entryDy=0;" edge="1" parent="1" source="dV_gZ1XD_IvCjIzvJvZ3-51" target="dV_gZ1XD_IvCjIzvJvZ3-102">
          <mxGeometry relative="1" as="geometry" />
        </mxCell>
        <mxCell id="dV_gZ1XD_IvCjIzvJvZ3-51" value="Savings&amp;nbsp;account" style="swimlane;fontStyle=0;childLayout=stackLayout;horizontal=1;startSize=26;fillColor=none;horizontalStack=0;resizeParent=1;resizeParentMax=0;resizeLast=0;collapsible=1;marginBottom=0;whiteSpace=wrap;html=1;" vertex="1" parent="1">
          <mxGeometry x="60" y="412" width="190" height="52" as="geometry">
            <mxRectangle x="120" y="412" width="130" height="30" as="alternateBounds" />
          </mxGeometry>
        </mxCell>
        <mxCell id="dV_gZ1XD_IvCjIzvJvZ3-52" value="+ maxTransactionLimit: Integer" style="text;strokeColor=none;fillColor=none;align=left;verticalAlign=top;spacingLeft=4;spacingRight=4;overflow=hidden;rotatable=0;points=[[0,0.5],[1,0.5]];portConstraint=eastwest;whiteSpace=wrap;html=1;" vertex="1" parent="dV_gZ1XD_IvCjIzvJvZ3-51">
          <mxGeometry y="26" width="190" height="26" as="geometry" />
        </mxCell>
        <mxCell id="dV_gZ1XD_IvCjIzvJvZ3-82" value="" style="edgeStyle=entityRelationEdgeStyle;fontSize=12;html=1;endArrow=ERoneToMany;rounded=0;exitX=1;exitY=0.5;exitDx=0;exitDy=0;entryX=0;entryY=0.5;entryDx=0;entryDy=0;" edge="1" parent="1" source="dV_gZ1XD_IvCjIzvJvZ3-11" target="dV_gZ1XD_IvCjIzvJvZ3-3">
          <mxGeometry width="100" height="100" relative="1" as="geometry">
            <mxPoint x="-20" y="270" as="sourcePoint" />
            <mxPoint x="80" y="170" as="targetPoint" />
          </mxGeometry>
        </mxCell>
        <mxCell id="dV_gZ1XD_IvCjIzvJvZ3-83" style="edgeStyle=orthogonalEdgeStyle;rounded=0;orthogonalLoop=1;jettySize=auto;html=1;entryX=0.277;entryY=0.962;entryDx=0;entryDy=0;entryPerimeter=0;" edge="1" parent="1" source="dV_gZ1XD_IvCjIzvJvZ3-21" target="dV_gZ1XD_IvCjIzvJvZ3-13">
          <mxGeometry relative="1" as="geometry" />
        </mxCell>
        <mxCell id="dV_gZ1XD_IvCjIzvJvZ3-84" style="edgeStyle=orthogonalEdgeStyle;rounded=0;orthogonalLoop=1;jettySize=auto;html=1;entryX=0.61;entryY=1;entryDx=0;entryDy=0;entryPerimeter=0;" edge="1" parent="1" source="dV_gZ1XD_IvCjIzvJvZ3-25" target="dV_gZ1XD_IvCjIzvJvZ3-13">
          <mxGeometry relative="1" as="geometry" />
        </mxCell>
        <mxCell id="dV_gZ1XD_IvCjIzvJvZ3-89" value="Credit card" style="swimlane;fontStyle=0;childLayout=stackLayout;horizontal=1;startSize=26;fillColor=none;horizontalStack=0;resizeParent=1;resizeParentMax=0;resizeLast=0;collapsible=1;marginBottom=0;whiteSpace=wrap;html=1;" vertex="1" parent="1">
          <mxGeometry x="850" y="412" width="160" height="286" as="geometry" />
        </mxCell>
        <mxCell id="dV_gZ1XD_IvCjIzvJvZ3-90" value="+ id: String" style="text;strokeColor=none;fillColor=none;align=left;verticalAlign=top;spacingLeft=4;spacingRight=4;overflow=hidden;rotatable=0;points=[[0,0.5],[1,0.5]];portConstraint=eastwest;whiteSpace=wrap;html=1;" vertex="1" parent="dV_gZ1XD_IvCjIzvJvZ3-89">
          <mxGeometry y="26" width="160" height="26" as="geometry" />
        </mxCell>
        <mxCell id="dV_gZ1XD_IvCjIzvJvZ3-91" value="+ expirationDate: String" style="text;strokeColor=none;fillColor=none;align=left;verticalAlign=top;spacingLeft=4;spacingRight=4;overflow=hidden;rotatable=0;points=[[0,0.5],[1,0.5]];portConstraint=eastwest;whiteSpace=wrap;html=1;" vertex="1" parent="dV_gZ1XD_IvCjIzvJvZ3-89">
          <mxGeometry y="52" width="160" height="26" as="geometry" />
        </mxCell>
        <mxCell id="dV_gZ1XD_IvCjIzvJvZ3-92" value="+ holderName: String" style="text;strokeColor=none;fillColor=none;align=left;verticalAlign=top;spacingLeft=4;spacingRight=4;overflow=hidden;rotatable=0;points=[[0,0.5],[1,0.5]];portConstraint=eastwest;whiteSpace=wrap;html=1;" vertex="1" parent="dV_gZ1XD_IvCjIzvJvZ3-89">
          <mxGeometry y="78" width="160" height="26" as="geometry" />
        </mxCell>
        <mxCell id="dV_gZ1XD_IvCjIzvJvZ3-132" value="+ totalLine: String" style="text;strokeColor=none;fillColor=none;align=left;verticalAlign=top;spacingLeft=4;spacingRight=4;overflow=hidden;rotatable=0;points=[[0,0.5],[1,0.5]];portConstraint=eastwest;whiteSpace=wrap;html=1;" vertex="1" parent="dV_gZ1XD_IvCjIzvJvZ3-89">
          <mxGeometry y="104" width="160" height="26" as="geometry" />
        </mxCell>
        <mxCell id="dV_gZ1XD_IvCjIzvJvZ3-133" value="+ currentBalance: String" style="text;strokeColor=none;fillColor=none;align=left;verticalAlign=top;spacingLeft=4;spacingRight=4;overflow=hidden;rotatable=0;points=[[0,0.5],[1,0.5]];portConstraint=eastwest;whiteSpace=wrap;html=1;" vertex="1" parent="dV_gZ1XD_IvCjIzvJvZ3-89">
          <mxGeometry y="130" width="160" height="26" as="geometry" />
        </mxCell>
        <mxCell id="dV_gZ1XD_IvCjIzvJvZ3-140" value="+ cutOffDate: String" style="text;strokeColor=none;fillColor=none;align=left;verticalAlign=top;spacingLeft=4;spacingRight=4;overflow=hidden;rotatable=0;points=[[0,0.5],[1,0.5]];portConstraint=eastwest;whiteSpace=wrap;html=1;" vertex="1" parent="dV_gZ1XD_IvCjIzvJvZ3-89">
          <mxGeometry y="156" width="160" height="26" as="geometry" />
        </mxCell>
        <mxCell id="dV_gZ1XD_IvCjIzvJvZ3-141" value="+ paymentDate: String" style="text;strokeColor=none;fillColor=none;align=left;verticalAlign=top;spacingLeft=4;spacingRight=4;overflow=hidden;rotatable=0;points=[[0,0.5],[1,0.5]];portConstraint=eastwest;whiteSpace=wrap;html=1;" vertex="1" parent="dV_gZ1XD_IvCjIzvJvZ3-89">
          <mxGeometry y="182" width="160" height="26" as="geometry" />
        </mxCell>
        <mxCell id="dV_gZ1XD_IvCjIzvJvZ3-142" value="+ currentLine: String" style="text;strokeColor=none;fillColor=none;align=left;verticalAlign=top;spacingLeft=4;spacingRight=4;overflow=hidden;rotatable=0;points=[[0,0.5],[1,0.5]];portConstraint=eastwest;whiteSpace=wrap;html=1;" vertex="1" parent="dV_gZ1XD_IvCjIzvJvZ3-89">
          <mxGeometry y="208" width="160" height="26" as="geometry" />
        </mxCell>
        <mxCell id="dV_gZ1XD_IvCjIzvJvZ3-143" value="+ minPayment: String" style="text;strokeColor=none;fillColor=none;align=left;verticalAlign=top;spacingLeft=4;spacingRight=4;overflow=hidden;rotatable=0;points=[[0,0.5],[1,0.5]];portConstraint=eastwest;whiteSpace=wrap;html=1;" vertex="1" parent="dV_gZ1XD_IvCjIzvJvZ3-89">
          <mxGeometry y="234" width="160" height="26" as="geometry" />
        </mxCell>
        <mxCell id="dV_gZ1XD_IvCjIzvJvZ3-144" value="+ totalPayment: String" style="text;strokeColor=none;fillColor=none;align=left;verticalAlign=top;spacingLeft=4;spacingRight=4;overflow=hidden;rotatable=0;points=[[0,0.5],[1,0.5]];portConstraint=eastwest;whiteSpace=wrap;html=1;" vertex="1" parent="dV_gZ1XD_IvCjIzvJvZ3-89">
          <mxGeometry y="260" width="160" height="26" as="geometry" />
        </mxCell>
        <mxCell id="dV_gZ1XD_IvCjIzvJvZ3-130" style="edgeStyle=orthogonalEdgeStyle;rounded=0;orthogonalLoop=1;jettySize=auto;html=1;entryX=0.25;entryY=1;entryDx=0;entryDy=0;" edge="1" parent="1" source="dV_gZ1XD_IvCjIzvJvZ3-93" target="dV_gZ1XD_IvCjIzvJvZ3-37">
          <mxGeometry relative="1" as="geometry" />
        </mxCell>
        <mxCell id="dV_gZ1XD_IvCjIzvJvZ3-93" value="Credit" style="swimlane;fontStyle=0;childLayout=stackLayout;horizontal=1;startSize=26;fillColor=none;horizontalStack=0;resizeParent=1;resizeParentMax=0;resizeLast=0;collapsible=1;marginBottom=0;whiteSpace=wrap;html=1;" vertex="1" parent="1">
          <mxGeometry x="650" y="412" width="140" height="104" as="geometry" />
        </mxCell>
        <mxCell id="dV_gZ1XD_IvCjIzvJvZ3-94" value="+ id: String" style="text;strokeColor=none;fillColor=none;align=left;verticalAlign=top;spacingLeft=4;spacingRight=4;overflow=hidden;rotatable=0;points=[[0,0.5],[1,0.5]];portConstraint=eastwest;whiteSpace=wrap;html=1;" vertex="1" parent="dV_gZ1XD_IvCjIzvJvZ3-93">
          <mxGeometry y="26" width="140" height="26" as="geometry" />
        </mxCell>
        <mxCell id="dV_gZ1XD_IvCjIzvJvZ3-95" value="+ amount: String" style="text;strokeColor=none;fillColor=none;align=left;verticalAlign=top;spacingLeft=4;spacingRight=4;overflow=hidden;rotatable=0;points=[[0,0.5],[1,0.5]];portConstraint=eastwest;whiteSpace=wrap;html=1;" vertex="1" parent="dV_gZ1XD_IvCjIzvJvZ3-93">
          <mxGeometry y="52" width="140" height="26" as="geometry" />
        </mxCell>
        <mxCell id="dV_gZ1XD_IvCjIzvJvZ3-96" value="+ dateCreated: String" style="text;strokeColor=none;fillColor=none;align=left;verticalAlign=top;spacingLeft=4;spacingRight=4;overflow=hidden;rotatable=0;points=[[0,0.5],[1,0.5]];portConstraint=eastwest;whiteSpace=wrap;html=1;" vertex="1" parent="dV_gZ1XD_IvCjIzvJvZ3-93">
          <mxGeometry y="78" width="140" height="26" as="geometry" />
        </mxCell>
        <mxCell id="dV_gZ1XD_IvCjIzvJvZ3-99" value="Banking transactions" style="swimlane;fontStyle=0;childLayout=stackLayout;horizontal=1;startSize=26;fillColor=none;horizontalStack=0;resizeParent=1;resizeParentMax=0;resizeLast=0;collapsible=1;marginBottom=0;whiteSpace=wrap;html=1;" vertex="1" parent="1">
          <mxGeometry x="240" y="760" width="160" height="104" as="geometry" />
        </mxCell>
        <mxCell id="dV_gZ1XD_IvCjIzvJvZ3-100" value="+ id: String" style="text;strokeColor=none;fillColor=none;align=left;verticalAlign=top;spacingLeft=4;spacingRight=4;overflow=hidden;rotatable=0;points=[[0,0.5],[1,0.5]];portConstraint=eastwest;whiteSpace=wrap;html=1;" vertex="1" parent="dV_gZ1XD_IvCjIzvJvZ3-99">
          <mxGeometry y="26" width="160" height="26" as="geometry" />
        </mxCell>
        <mxCell id="dV_gZ1XD_IvCjIzvJvZ3-101" value="+ dateTransaction: String" style="text;strokeColor=none;fillColor=none;align=left;verticalAlign=top;spacingLeft=4;spacingRight=4;overflow=hidden;rotatable=0;points=[[0,0.5],[1,0.5]];portConstraint=eastwest;whiteSpace=wrap;html=1;" vertex="1" parent="dV_gZ1XD_IvCjIzvJvZ3-99">
          <mxGeometry y="52" width="160" height="26" as="geometry" />
        </mxCell>
        <mxCell id="dV_gZ1XD_IvCjIzvJvZ3-102" value="+ transactionType: String" style="text;strokeColor=none;fillColor=none;align=left;verticalAlign=top;spacingLeft=4;spacingRight=4;overflow=hidden;rotatable=0;points=[[0,0.5],[1,0.5]];portConstraint=eastwest;whiteSpace=wrap;html=1;" vertex="1" parent="dV_gZ1XD_IvCjIzvJvZ3-99">
          <mxGeometry y="78" width="160" height="26" as="geometry" />
        </mxCell>
        <mxCell id="dV_gZ1XD_IvCjIzvJvZ3-103" value="Bank debts" style="swimlane;fontStyle=0;childLayout=stackLayout;horizontal=1;startSize=26;fillColor=none;horizontalStack=0;resizeParent=1;resizeParentMax=0;resizeLast=0;collapsible=1;marginBottom=0;whiteSpace=wrap;html=1;" vertex="1" parent="1">
          <mxGeometry x="640" y="770" width="140" height="104" as="geometry" />
        </mxCell>
        <mxCell id="dV_gZ1XD_IvCjIzvJvZ3-104" value="+ id: String" style="text;strokeColor=none;fillColor=none;align=left;verticalAlign=top;spacingLeft=4;spacingRight=4;overflow=hidden;rotatable=0;points=[[0,0.5],[1,0.5]];portConstraint=eastwest;whiteSpace=wrap;html=1;" vertex="1" parent="dV_gZ1XD_IvCjIzvJvZ3-103">
          <mxGeometry y="26" width="140" height="26" as="geometry" />
        </mxCell>
        <mxCell id="dV_gZ1XD_IvCjIzvJvZ3-105" value="+ amount: String" style="text;strokeColor=none;fillColor=none;align=left;verticalAlign=top;spacingLeft=4;spacingRight=4;overflow=hidden;rotatable=0;points=[[0,0.5],[1,0.5]];portConstraint=eastwest;whiteSpace=wrap;html=1;" vertex="1" parent="dV_gZ1XD_IvCjIzvJvZ3-103">
          <mxGeometry y="52" width="140" height="26" as="geometry" />
        </mxCell>
        <mxCell id="dV_gZ1XD_IvCjIzvJvZ3-106" value="+ expirationDate: String" style="text;strokeColor=none;fillColor=none;align=left;verticalAlign=top;spacingLeft=4;spacingRight=4;overflow=hidden;rotatable=0;points=[[0,0.5],[1,0.5]];portConstraint=eastwest;whiteSpace=wrap;html=1;" vertex="1" parent="dV_gZ1XD_IvCjIzvJvZ3-103">
          <mxGeometry y="78" width="140" height="26" as="geometry" />
        </mxCell>
        <mxCell id="dV_gZ1XD_IvCjIzvJvZ3-112" style="edgeStyle=orthogonalEdgeStyle;rounded=0;orthogonalLoop=1;jettySize=auto;html=1;entryX=0.673;entryY=-0.019;entryDx=0;entryDy=0;entryPerimeter=0;" edge="1" parent="1" source="dV_gZ1XD_IvCjIzvJvZ3-89" target="dV_gZ1XD_IvCjIzvJvZ3-103">
          <mxGeometry relative="1" as="geometry">
            <Array as="points">
              <mxPoint x="910" y="624" />
              <mxPoint x="854" y="624" />
            </Array>
          </mxGeometry>
        </mxCell>
        <mxCell id="dV_gZ1XD_IvCjIzvJvZ3-145" style="edgeStyle=orthogonalEdgeStyle;rounded=0;orthogonalLoop=1;jettySize=auto;html=1;entryX=0.481;entryY=-0.041;entryDx=0;entryDy=0;entryPerimeter=0;" edge="1" parent="1" source="dV_gZ1XD_IvCjIzvJvZ3-43" target="dV_gZ1XD_IvCjIzvJvZ3-99">
          <mxGeometry relative="1" as="geometry">
            <Array as="points">
              <mxPoint x="520" y="690" />
              <mxPoint x="317" y="690" />
            </Array>
          </mxGeometry>
        </mxCell>
        <mxCell id="dV_gZ1XD_IvCjIzvJvZ3-146" style="edgeStyle=orthogonalEdgeStyle;rounded=0;orthogonalLoop=1;jettySize=auto;html=1;entryX=0.414;entryY=1.024;entryDx=0;entryDy=0;entryPerimeter=0;" edge="1" parent="1" source="dV_gZ1XD_IvCjIzvJvZ3-89" target="dV_gZ1XD_IvCjIzvJvZ3-102">
          <mxGeometry relative="1" as="geometry">
            <Array as="points">
              <mxPoint x="930" y="910" />
              <mxPoint x="306" y="910" />
            </Array>
          </mxGeometry>
        </mxCell>
        <mxCell id="dV_gZ1XD_IvCjIzvJvZ3-154" style="edgeStyle=orthogonalEdgeStyle;rounded=0;orthogonalLoop=1;jettySize=auto;html=1;entryX=-0.014;entryY=0.15;entryDx=0;entryDy=0;entryPerimeter=0;" edge="1" parent="1" source="dV_gZ1XD_IvCjIzvJvZ3-51" target="dV_gZ1XD_IvCjIzvJvZ3-36">
          <mxGeometry relative="1" as="geometry" />
        </mxCell>
        <mxCell id="dV_gZ1XD_IvCjIzvJvZ3-155" style="edgeStyle=orthogonalEdgeStyle;rounded=0;orthogonalLoop=1;jettySize=auto;html=1;entryX=0.184;entryY=1.139;entryDx=0;entryDy=0;entryPerimeter=0;" edge="1" parent="1" source="dV_gZ1XD_IvCjIzvJvZ3-47" target="dV_gZ1XD_IvCjIzvJvZ3-153">
          <mxGeometry relative="1" as="geometry">
            <Array as="points">
              <mxPoint x="348" y="371" />
              <mxPoint x="370" y="371" />
              <mxPoint x="370" y="334" />
            </Array>
          </mxGeometry>
        </mxCell>
        <mxCell id="dV_gZ1XD_IvCjIzvJvZ3-156" style="edgeStyle=orthogonalEdgeStyle;rounded=0;orthogonalLoop=1;jettySize=auto;html=1;entryX=0.641;entryY=1.113;entryDx=0;entryDy=0;entryPerimeter=0;" edge="1" parent="1" source="dV_gZ1XD_IvCjIzvJvZ3-43" target="dV_gZ1XD_IvCjIzvJvZ3-153">
          <mxGeometry relative="1" as="geometry">
            <Array as="points">
              <mxPoint x="520" y="360" />
              <mxPoint x="443" y="360" />
            </Array>
          </mxGeometry>
        </mxCell>
        <mxCell id="dV_gZ1XD_IvCjIzvJvZ3-158" style="edgeStyle=orthogonalEdgeStyle;rounded=0;orthogonalLoop=1;jettySize=auto;html=1;entryX=0.614;entryY=1.065;entryDx=0;entryDy=0;entryPerimeter=0;" edge="1" parent="1" source="dV_gZ1XD_IvCjIzvJvZ3-89" target="dV_gZ1XD_IvCjIzvJvZ3-157">
          <mxGeometry relative="1" as="geometry">
            <Array as="points">
              <mxPoint x="930" y="360" />
              <mxPoint x="846" y="360" />
            </Array>
          </mxGeometry>
        </mxCell>
        <mxCell id="dV_gZ1XD_IvCjIzvJvZ3-159" style="edgeStyle=orthogonalEdgeStyle;rounded=0;orthogonalLoop=1;jettySize=auto;html=1;entryX=0.166;entryY=-0.006;entryDx=0;entryDy=0;entryPerimeter=0;" edge="1" parent="1" source="dV_gZ1XD_IvCjIzvJvZ3-93" target="dV_gZ1XD_IvCjIzvJvZ3-103">
          <mxGeometry relative="1" as="geometry">
            <Array as="points">
              <mxPoint x="670" y="643" />
              <mxPoint x="663" y="643" />
            </Array>
          </mxGeometry>
        </mxCell>
      </root>
    </mxGraphModel>
  </diagram>
</mxfile>
